# xmcd
#
# Track frame offsets: 
#        150
#        11253
#        25611
#        36511
#        47389
#        60140
#        71928
#        83155
#        96135
#        106851
#        118245
#        126695
#        138761
#        140799
#        153047
#        163342
#        173666
#        180144
#        192822
#        206947
#        221349
#        233071
#        244629
#        255121
#        265626
#        280133
#
# Disc length: 3871 seconds
#
# Revision: 1
# Processed by: cddbd v1.5.2PL0 Copyright (c) Steve Scherf et al.
# Submitted via: ExactAudioCopyFreeDBPlugin 1.0
#
DISCID=5b0f1d1a
DTITLE=Charley Pride - Songs Of Pride...Charley That Is and In Person
DYEAR=2015
DGENRE=Country
TTITLE0=Someday You Will
TTITLE1=She Made Me Go
TTITLE2=The Right To Do Wrong
TTITLE3=The Easy Part's Over
TTITLE4=The Day You Stop Loving Me
TTITLE5=I Could Have Saved You The Time
TTITLE6=One Of These Days
TTITLE7=All The Time
TTITLE8=My Heart Is A House
TTITLE9=Let Me Help You Work It Out
TTITLE10=Both Of Us Love You
TTITLE11=The Top Of The World
TTITLE12=Intro
TTITLE13=The Last Thing On My Mind
TTITLE14=Just Between You And Me
TTITLE15=I Know One
TTITLE16=Dialogue
TTITLE17=Lovesick Blues
TTITLE18=The Image Of Me
TTITLE19=Kaw-Liga
TTITLE20=Shutters And Boards
TTITLE21=Six Days On The Road
TTITLE22=Streets Of Baltimore
TTITLE23=Got Leavin' On Her Mind
TTITLE24=Crystal Chandeliers
TTITLE25=Cotton Fields
EXTD=
EXTT0=
EXTT1=
EXTT2=
EXTT3=
EXTT4=
EXTT5=
EXTT6=
EXTT7=
EXTT8=
EXTT9=
EXTT10=
EXTT11=
EXTT12=
EXTT13=
EXTT14=
EXTT15=
EXTT16=
EXTT17=
EXTT18=
EXTT19=
EXTT20=
EXTT21=
EXTT22=
EXTT23=
EXTT24=
EXTT25=
PLAYORDER=
